<?xml version="1.0" encoding="UTF-8" standalone="no"?>
<!-- Generator: Adobe Illustrator 20.0.0, SVG Export Plug-In . SVG Version: 6.00 Build 0)  -->

<svg
   version="1.1"
   id="Capa_1"
   x="0px"
   y="0px"
   viewBox="0 0 247.9 49.6"
   style="enable-background:new 0 0 247.9 49.6;"
   xml:space="preserve"
   sodipodi:docname="logo-claro-drive-bco.svg"
   inkscape:version="1.1 (c68e22c387, 2021-05-23)"
   xmlns:inkscape="http://www.inkscape.org/namespaces/inkscape"
   xmlns:sodipodi="http://sodipodi.sourceforge.net/DTD/sodipodi-0.dtd"
   xmlns="http://www.w3.org/2000/svg"
   xmlns:svg="http://www.w3.org/2000/svg"><defs
   id="defs37" /><sodipodi:namedview
   id="namedview35"
   pagecolor="#ffffff"
   bordercolor="#666666"
   borderopacity="1.0"
   inkscape:pageshadow="2"
   inkscape:pageopacity="0.0"
   inkscape:pagecheckerboard="0"
   showgrid="false"
   inkscape:zoom="2.2872126"
   inkscape:cx="71.48439"
   inkscape:cy="21.20485"
   inkscape:window-width="1920"
   inkscape:window-height="1017"
   inkscape:window-x="1912"
   inkscape:window-y="-8"
   inkscape:window-maximized="1"
   inkscape:current-layer="Capa_1" />
<style
   type="text/css"
   id="style2">
	.st0{fill:#E30613;}
	.st1{fill:#FFFFFF;}
</style>
<path
   class="st0"
   d="M112.1,26.2c-2.7-2.7-6-4-9.7-4s-6.8,1.3-9.5,4s-4,6-4,9.8s1.3,7,4,9.7c2.6,2.7,5.9,4,9.5,4s7-1.3,9.7-4  s3.9-5.9,3.9-9.7C116,32,114.7,28.9,112.1,26.2 M107.5,41c-1.3,1.5-3.1,2.1-5,2.1s-3.7-0.7-5-2.1c-1.3-1.5-2.1-3.2-2.1-5.1  c0-2.1,0.7-3.8,2.1-5.1c1.3-1.5,3.1-2.1,5-2.1c2-0.1,3.7,0.6,5.1,2.1c1.3,1.3,2,3.1,2.1,5.1C109.5,37.8,108.9,39.5,107.5,41"
   id="path4" />
<path
   class="st0"
   d="M16.7,15.4c-4.6-0.1-8.6,1.6-11.9,5C1.6,23.7,0,27.6,0,32.4c0,4.6,1.6,8.7,4.9,12s7.1,4.9,11.9,4.9  c3.8,0,7.2-1.1,10.1-3.4c2.9-2.3,4.9-5.4,5.9-8.9H26c-0.9,1.7-2.1,3.2-3.7,4.3c-1.7,1.1-3.5,1.6-5.6,1.6c-2.9,0-5.4-1.1-7.3-3.1  c-2.1-2.1-3.1-4.5-3.1-7.3c0-2.9,1-5.4,3.1-7.5c2-2,4.4-3.1,7.3-3.1c2,0,3.8,0.6,5.6,1.7c1.6,1.1,2.8,2.6,3.7,4.3h6.8  c-1-3.7-2.9-6.6-5.9-8.9C24,16.5,20.4,15.3,16.7,15.4"
   id="path6" />
<path
   class="st0"
   d="M58.1,22c-4.4-0.1-7.5,1.1-9.2,3.4c-1.1,1.5-1.7,3.3-1.8,5.7h6.5c0.1-1.1,0.5-1.8,1-2.3  c0.7-0.9,1.8-1.3,3.4-1.2c1.3-0.1,2.4,0.2,3.2,0.6c0.7,0.4,1.1,1.1,1.1,2.2c0,0.9-0.5,1.6-1.5,2l-5,0.9c-2.3,0.4-4.2,0.9-5.6,1.7  c-2.4,1.5-3.7,3.8-3.5,7.1c-0.1,2.3,0.7,4.2,2.2,5.6c1.3,1.1,3.2,1.7,5.4,1.8c3.5-0.1,6.4-1,8.4-2.7v2.7h6.5V30.2  c0-3.2-1.1-5.4-3.3-6.5C63.3,22.5,60.9,22,58.1,22 M60.8,36.8l1.2-0.7v2.7c0,2.2-0.6,3.8-1.8,4.6c-1.2,0.9-2.6,1.3-4,1.3  c-1,0-1.7-0.2-2.3-0.7c-0.6-0.6-1-1.3-1-2.6s0.5-2.2,1.6-2.9c0.6-0.4,1.7-0.7,3.1-0.9L60.8,36.8z"
   id="path8" />
<rect
   x="36.1"
   y="15.4"
   class="st0"
   width="6.5"
   height="34"
   id="rect10" />
<g
   id="g14">
	<path
   class="st0"
   d="M84.1,23c-1.7,0.7-3.3,1.8-4.6,3.7v-3.3h-6.2v26h6.5V36.9c0-2.1,0.2-3.7,0.9-4.5c0.5-1,1.2-1.8,2.2-2.4   c1.1-0.7,2.3-1.1,3.5-1.1l2,0.1v-6.6l-1.7-0.1L84.1,23z"
   id="path12" />
</g>
<rect
   x="111.9"
   y="10.2"
   transform="matrix(0.7067 -0.7075 0.7075 0.7067 26.7652 90.8685)"
   class="st0"
   width="22.2"
   height="5.9"
   id="rect16" />
<rect
   x="100.4"
   class="st0"
   width="5.9"
   height="16.9"
   id="rect18" />
<rect
   x="120"
   y="29.6"
   class="st0"
   width="17.2"
   height="5.9"
   id="rect20" />
<path
   class="st1"
   d="M247.9,37.6c-1.7,0-3.4,0.1-5.1,0.1c-3.8,0-7.6,0-11.4,0c-0.3,2,0.7,4.1,2.4,5.1c2.5,1.5,6,0.9,9.1-1.5  c1.3,1.3,2.5,2.7,3.8,4c-3.1,3.4-7.2,4.4-11.8,3.8c-5.9-0.8-9.1-4.1-9.9-10c-0.4-2.7-0.4-5.4,0.3-8.1c1.4-5.8,5.6-9.2,11.4-9  c5.8,0.1,9.9,3.8,11,9.7c0.1,0.3,0.2,0.6,0.3,0.9C247.9,34.3,247.9,35.9,247.9,37.6z M241.4,33.1c-0.2-3.7-2.1-5.6-5.2-5.5  c-2.9,0.1-4.8,2.3-4.8,5.5C234.7,33.1,238,33.1,241.4,33.1z"
   id="path22"
   style="fill:#1f1410;fill-opacity:1" />
<path
   class="st1"
   d="M165.5,48.9c-2.2,0-4.2,0-6.3,0c0-0.7-0.1-1.4-0.1-2.1c-0.2,0.1-0.4,0.2-0.5,0.3c-2.9,3-8.5,2.6-11.4,0.6  c-1.8-1.2-2.7-2.9-3.1-4.9c-0.9-4.6-1-9.2-0.1-13.8c1.3-6.8,9.3-9.4,14.6-4.9c0.1,0.1,0.2,0.1,0.6,0.4c0-2.1,0-4.1,0-6s0-3.9,0-5.9  c2.2,0,4.3,0,6.5,0C165.5,24.7,165.5,36.7,165.5,48.9z M159.1,35.6c-0.2-1.5-0.2-3-0.6-4.5c-0.5-2.1-2-3.2-4.1-3.1  c-2.2,0-3.5,1-4,3.2c-0.7,2.9-0.7,5.9,0,8.8c0.5,2.2,1.8,3.3,4,3.3s3.7-1.1,4.1-3.3C158.9,38.6,159,37.1,159.1,35.6z"
   id="path24"
   style="fill:#1f1410;fill-opacity:1" />
<path
   class="st1"
   d="M224.8,22.3c-1.3,3.4-2.4,6.6-3.6,9.8c-1.9,5.3-3.9,10.5-5.7,15.8c-0.3,0.9-0.7,1.2-1.6,1.1  c-1-0.1-2.1,0.1-3.1-0.1c-0.4,0-1-0.4-1.2-0.7c-3.1-8.4-6.2-16.8-9.3-25.2c-0.1-0.1-0.1-0.3-0.1-0.7c2.2,0,4.3,0,6.4,0  c0.3,0,0.6,0.7,0.8,1.1c1.5,4.6,3,9.2,4.5,13.8c0.1,0.4,0.3,0.7,0.5,1.3c0.2-0.6,0.4-1,0.5-1.3c1.5-4.6,3-9.2,4.5-13.8  c0.3-0.8,0.6-1.2,1.6-1.1C220.8,22.4,222.7,22.3,224.8,22.3z"
   id="path26"
   style="fill:#1f1410;fill-opacity:1" />
<path
   class="st1"
   d="M170.6,22.4c2.1,0,4.2,0,6.3,0c0,0.7,0.1,1.4,0.1,2.2c5.2-3.4,9.7-3.4,12.7-0.1c-1.7,1.6-3.3,3.1-5.1,4.8  c-0.4-0.3-1.1-0.8-1.9-1c-2.8-0.9-5.5,0.9-5.6,3.9c-0.2,3.4-0.1,6.9-0.1,10.3c0,2.1,0,4.3,0,6.5c-2.2,0-4.4,0-6.5,0  C170.6,40,170.6,31.2,170.6,22.4z"
   id="path28"
   style="fill:#1f1410;fill-opacity:1" />
<path
   class="st1"
   d="M198.2,48.9c-2.2,0-4.3,0-6.5,0c0-8.9,0-17.6,0-26.5c2.2,0,4.3,0,6.5,0C198.2,31.2,198.2,40,198.2,48.9z"
   id="path30"
   style="fill:#1f1410;fill-opacity:1" />
<path
   class="st1"
   d="M195,10.7c2.3,0,4.1,1.9,4.1,4.2S197.2,19,195,19c-2.3,0-4.1-1.8-4.2-4.2C190.8,12.5,192.6,10.7,195,10.7z"
   id="path32"
   style="fill:#1f1410;fill-opacity:1" />
</svg>
